<svg xmlns="http://www.w3.org/2000/svg" width="3424" height="2428" viewBox="0 0 3424 2428" version="1.1"><path d="M 331.786 6.750 C 341.553 17.751, 364.754 39.924, 375.547 48.570 C 399.537 67.790, 420.224 80.878, 447.500 94.095 C 484.823 112.180, 519.097 122.384, 562 128.182 C 585.906 131.413, 630.094 131.413, 654 128.182 C 696.903 122.384, 731.177 112.180, 768.500 94.095 C 795.776 80.878, 816.463 67.790, 840.453 48.570 C 851.246 39.924, 874.447 17.751, 884.214 6.750 L 890.206 -0 608 -0 L 325.794 0 331.786 6.750 M 2955.500 2311.028 C 2950 2311.518, 2938.793 2312.883, 2930.596 2314.061 C 2853.439 2325.155, 2778.842 2362.830, 2724.020 2418.392 L 2714.540 2428 2985 2428 L 3255.460 2428 3245.980 2418.392 C 3217.497 2389.524, 3185.373 2366.552, 3147.500 2347.966 C 3109.067 2329.106, 3074.606 2318.668, 3032 2312.982 C 3014.277 2310.617, 2972.186 2309.542, 2955.500 2311.028" stroke="none" fill="#2cace4" fill-rule="evenodd"/><path d="M 0 1214 L 0 2428 1357.156 2428 L 2714.313 2428 2728.406 2414.236 C 2757.739 2385.590, 2787.053 2365.050, 2824.500 2346.905 C 2861.823 2328.820, 2896.097 2318.616, 2939 2312.818 C 2962.906 2309.587, 3007.094 2309.587, 3031 2312.818 C 3073.903 2318.616, 3108.177 2328.820, 3145.500 2346.905 C 3182.950 2365.052, 3212.260 2385.590, 3241.600 2414.242 L 3255.699 2428.011 3340.100 2427.756 L 3424.500 2427.500 3424.750 1213.750 L 3425.001 0 2157.901 0 L 890.800 0 874.318 16.978 C 841.182 51.111, 811.261 73.031, 770.500 93.034 C 731.797 112.027, 697.929 122.245, 654 128.182 C 630.094 131.413, 585.906 131.413, 562 128.182 C 518.071 122.245, 484.203 112.027, 445.500 93.034 C 404.739 73.031, 374.818 51.111, 341.682 16.978 L 325.200 0 162.600 0 L 0 0 0 1214 M 0.498 1214.500 C 0.498 1882.200, 0.612 2155.200, 0.750 1821.167 C 0.888 1487.134, 0.888 940.834, 0.750 607.167 C 0.612 273.500, 0.498 546.800, 0.498 1214.500" stroke="none" fill="#f0f2fb" fill-rule="evenodd"/></svg>